<svg xmlns="http://www.w3.org/2000/svg" xmlns:xlink="http://www.w3.org/1999/xlink" fill="none" viewBox="0 0 1018 207"><g><path fill="#869E29" d="M201.6 106.3a100.9 100.9 0 0 1-173.3 70.2L172 34.7c19 19 29.8 44.7 29.7 71.6Z"/><path fill="#B2D235" d="M28.5 176.7A100.9 100.9 0 0 1 172 34.9L28.5 176.7Z"/><path fill="#fff" d="M77.5 50.2H157V127c0 19.8-16 35.8-35.7 35.8H42.7V85a34.8 34.8 0 0 1 34.8-34.8Z"/><path fill="#414042" d="m79.1 73.5 61.5-.3v9.5c0 9.2-7.3 16.6-16.4 16.6l-59.1.3-.1-11.8c0-7.9 6.3-14.3 14.2-14.3ZM79.9 115.6l46.3-.4v9.6c.2 9.1-7.2 16.6-16.3 16.7l-44 .5-.2-12c0-7.8 6.3-14.3 14.2-14.4ZM207 0v77.6a108.7 108.7 0 0 0-29.2-48.5L207 0Z"/><path fill="#58595B" d="M122.7 0h84.2l-29 29.1a113 113 0 0 0-55.2-29Z"/><path fill="#414042" d="M286.4 188.3H258V12.6h28.4v175.7Zm68.3-175.7h35l-67.3 72.8 85 102.9h-34.2l-82-103.2 63.5-72.5ZM436.6 69.8v61.8c0 25.2 4.5 36.9 24.7 36.9 19.5 0 30-17 30-38.6V70H517v118.4h-25.6V171a38 38 0 0 1-34.9 19c-33.4 0-45.9-21-45.9-58.1v-62h26ZM543.1 129.3c0-34 21.6-61.2 60.4-61.2 33.2 0 51.6 16.2 55.6 19.3v100.9H634v-20.4a40.5 40.5 0 0 1-36.3 21.8c-35.8 0-54.5-26-54.5-60.4Zm26 .9c0 21 9.2 36.8 31.3 36.8 20.4 0 33.5-18.1 33.5-47.9V98.4c-2.9-2.2-12-7.9-29.3-7.9-23.5 0-35.4 18.4-35.4 39.7ZM737.7 189.7c-34.3 0-52.5-26-52.5-60.4 0-34 22.1-61.2 56.7-61.2 18.2 0 33.5 9 33.5 9V15.5l25.2-5.4v178.3h-25.2v-20.4a42.8 42.8 0 0 1-37.7 21.8ZM711 130.2c0 21 9 36.8 30 36.8 20.2 0 34.4-18.1 34.4-47.9v-17.5c-2.8-2.3-13-11.1-30-11.1-22 0-34.4 18.4-34.4 39.7ZM888 91c-27 0-30.6 21-30.6 46v51.3h-25.5V69.8h25.5v17.9c4-12.5 16.7-19.9 30-19.9 2.6 0 4.3 0 6.9.3-1.7 8.2-2.3 14.8-4.3 23h-2ZM901 129.3c0-34 21.5-61.2 60.4-61.2 33.2 0 51.6 16.2 55.6 19.3v100.9h-25.2v-20.4a40.5 40.5 0 0 1-36.4 21.8c-35.7 0-54.4-26-54.4-60.4Zm26 .9c0 21 9.2 36.8 31.3 36.8 20.4 0 33.5-18.1 33.5-47.9V98.4c-2.9-2.2-12-7.9-29.3-7.9-23.5 0-35.4 18.4-35.4 39.7Z"/></g></svg>
