<svg width="200" height="200" viewBox="0 0 200 200" fill="none" xmlns="http://www.w3.org/2000/svg">
<path fill-rule="evenodd" clip-rule="evenodd" d="M195.238 101.6C195.238 155.945 151.533 200 97.619 200C43.7055 200 0 155.945 0 101.6C0 47.2552 43.7055 3.20001 97.619 3.20001C151.533 3.20001 195.238 47.2552 195.238 101.6ZM151.571 47.248H74.8889C56.3201 47.2745 41.2786 62.4507 41.2698 81.168V156.912H117.063C136.122 156.912 151.571 141.339 151.571 122.128V47.248Z" fill="#e5e5e5"/>
<path d="M76.4694 69.9517L135.834 69.6488L135.881 78.9767C135.925 87.8662 128.812 95.109 119.993 95.154L62.8512 95.4455L62.7933 83.9097C62.7548 76.2396 68.892 69.9904 76.5012 69.9516L76.4694 69.9517Z" fill="#e5e5e5"/>
<path d="M77.151 111.022L121.897 110.571L121.99 119.963C122.078 128.852 115.001 136.131 106.182 136.22L63.626 136.648L63.511 125.048C63.4349 117.378 69.5417 111.098 77.151 111.022Z" fill="#e5e5e5"/>
<path fill-rule="evenodd" clip-rule="evenodd" d="M199.937 0.016V0L199.921 0.016H118.508C142.413 5.424 159.587 16.4 171.794 28.368L171.802 28.3599C185.155 41.3315 194.862 57.6362 199.937 75.616V0.016Z" fill="#e5e5e5"/>
</svg>
