<svg viewBox="0 0 380 507" fill="none" xmlns="http://www.w3.org/2000/svg"><g clip-path="url(#a)"><path fill="#fff" d="M0 0h380v507H0z"/><path fill="url(#b)" d="M-31-37h435v582H-31z"/><path d="M208 213h-36a6 6 0 0 0-6 6v52a6 6 0 0 0 6 6h36a6 6 0 0 0 6-6v-52a6 6 0 0 0-6-6Zm0 58h-36v-52h36v52Zm-18-26a8 8 0 0 0 8-8 8 8 0 0 0-8-8 8 8 0 0 0-8 8c0 4.5 3.5 8 8 8Zm-11.3 16h22.4c1.7 0 2.9-1 2.9-2.4v-2.4c0-4-3.9-7.2-8.5-7.2h-.6c-1.5.8-3.2 1-4.9 1-1.9 0-3.5-.3-5-1h-.6c-4.7 0-8.4 3.3-8.4 7.3v2.3c0 1.4 1.3 2.4 2.8 2.4Z" fill="#737373"/></g><defs><linearGradient id="b" x1="377.5" y1="506.5" x2="188.5" y2="317.5" gradientUnits="userSpaceOnUse"><stop stop-color="#D4D4D4"/><stop offset="1" stop-color="#FAFAFA"/></linearGradient><clipPath id="a"><path fill="#fff" d="M0 0h380v507H0z"/></clipPath></defs></svg>
