<svg xmlns="http://www.w3.org/2000/svg" fill="none" viewBox="0 0 256 256"><path fill="#fff" d="M0 0h256v256H0z"/><path fill="#869E29" d="M212.4 130.37a86.77 86.77 0 0 1-149.03 60.44L186.84 68.84a86.49 86.49 0 0 1 25.56 61.53Z"/><path fill="#B2D235" d="M63.5 190.94A86.77 86.77 0 0 1 186.98 69.02L63.5 190.94Z"/><path fill="#fff" d="M105.65 82.13h68.25v66.11a30.71 30.71 0 0 1-30.71 30.72H75.73v-66.88a29.96 29.96 0 0 1 29.92-29.95Z"/><path fill="#414042" d="M94.1 150.6a12.7 12.7 0 0 1 12.71-12.71h39.56v9.89c0 7.02-5.7 12.71-12.72 12.71H94.1v-9.89Zm0-36.73a12.7 12.7 0 0 1 12.71-12.71h52.27v9.89c0 7.02-5.7 12.71-12.72 12.71H94.1v-9.89ZM216.94 39v66.76a93.47 93.47 0 0 0-25.04-41.73L216.94 39Z"/><path fill="#58595B" d="M144.47 39.01h72.47L191.9 64.05C181.03 53.48 165.75 43.79 144.47 39Z"/><path fill="#414042" d="M202.36 212.35v-12.32h3.6c1.5 0 2.61.3 3.33.91.72.6 1.07 1.5 1.07 2.72 0 .9-.23 1.6-.69 2.12-.45.52-.97.9-1.55 1.12l3.26 5.45h-2.26l-2.85-4.91h-1.9v4.91h-2Zm2-6.54h1.53c.77 0 1.37-.19 1.8-.56.44-.38.66-.9.66-1.53 0-.71-.2-1.22-.6-1.54a3.19 3.19 0 0 0-1.88-.47h-1.5v4.1Zm1.82 10.73c-1.5 0-2.88-.25-4.15-.77a9.87 9.87 0 0 1-5.46-5.45 11.2 11.2 0 0 1-.76-4.14c0-1.5.26-2.88.77-4.14a9.84 9.84 0 0 1 5.46-5.46 10.9 10.9 0 0 1 4.14-.77 10.35 10.35 0 0 1 9.58 6.25c.53 1.26.8 2.63.8 4.12 0 1.5-.26 2.87-.77 4.14a9.77 9.77 0 0 1-5.48 5.45 10.8 10.8 0 0 1-4.13.77Zm0-1.4a8.89 8.89 0 0 0 6.27-2.53 8.86 8.86 0 0 0 2.6-6.43 9.04 9.04 0 0 0-2.5-6.31 8.78 8.78 0 0 0-6.36-2.64c-1.3 0-2.48.22-3.56.66a8.4 8.4 0 0 0-4.67 4.72 9.56 9.56 0 0 0-.65 3.57 8.88 8.88 0 0 0 2.48 6.33 8.66 8.66 0 0 0 6.39 2.63Z"/></svg>
